{
  "accessors": [
    {
      "bufferView": 2,
      "componentType": 5126,
      "count": 17891,
      "max": [
        7100,
        1444.7371826171875,
        10504.91015625
      ],
      "min": [
        -7100,
        -8561.7890625,
        -11000
      ],
      "type": "VEC3"
    },
    {
      "bufferView": 2,
      "byteOffset": 214692,
      "componentType": 5126,
      "count": 17891,
      "max": [
        1,
        1,
        1
      ],
      "min": [
        -1,
        -1,
        -1
      ],
      "type": "VEC3"
    },
    {
      "bufferView": 3,
      "componentType": 5126,
      "count": 17891,
      "max": [
        1,
        1,
        1,
        1
      ],
      "min": [
        -1,
        -1,
        -1,
        -1
      ],
      "type": "VEC4"
    },
    {
      "bufferView": 1,
      "componentType": 5126,
      "count": 17891,
      "max": [
        6600,
        1444.7371826171875
      ],
      "min": [
        -6600,
        -844.7381591796875
      ],
      "type": "VEC2"
    },
    {
      "bufferView": 0,
      "componentType": 5125,
      "count": 57807,
      "max": [
        17890
      ],
      "min": [
        0
      ],
      "type": "SCALAR"
    },
    {
      "bufferView": 2,
      "byteOffset": 429384,
      "componentType": 5126,
      "count": 361,
      "max": [
        6516.8134765625,
        1050,
        8701.654296875
      ],
      "min": [
        -6516.8134765625,
        -2202.419189453125,
        -10527.5048828125
      ],
      "type": "VEC3"
    },
    {
      "bufferView": 2,
      "byteOffset": 433716,
      "componentType": 5126,
      "count": 361,
      "max": [
        1,
        1,
        1
      ],
      "min": [
        -1,
        -0.99999958276748657,
        -1
      ],
      "type": "VEC3"
    },
    {
      "bufferView": 3,
      "byteOffset": 286256,
      "componentType": 5126,
      "count": 361,
      "max": [
        1,
        0.87190818786621094,
        0.87946206331253052,
        1
      ],
      "min": [
        -0.89729434251785278,
        -1,
        -0.97446084022521973,
        -1
      ],
      "type": "VEC4"
    },
    {
      "bufferView": 1,
      "byteOffset": 143128,
      "componentType": 5126,
      "count": 361,
      "max": [
        0.91159188747406006,
        0.83429473638534546
      ],
      "min": [
        0.088408030569553375,
        0.55991733074188232
      ],
      "type": "VEC2"
    },
    {
      "bufferView": 0,
      "byteOffset": 231228,
      "componentType": 5125,
      "count": 651,
      "max": [
        360
      ],
      "min": [
        0
      ],
      "type": "SCALAR"
    }
  ],
  "asset": {
    "extras": {
      "author": "Julius Weissmann (https://sketchfab.com/Julius.Weissmann)",
      "license": "CC-BY-4.0 (http://creativecommons.org/licenses/by/4.0/)",
      "source": "https://sketchfab.com/3d-models/asclepius-temple-37701cc6414242cfb5f2ada6131a2e73",
      "title": "Asclepius temple"
    },
    "generator": "Sketchfab-6.33.0",
    "version": "2.0"
  },
  "bufferViews": [
    {
      "buffer": 0,
      "byteLength": 233832,
      "byteOffset": 0,
      "name": "floatBufferViews",
      "target": 34963
    },
    {
      "buffer": 0,
      "byteLength": 146016,
      "byteOffset": 233832,
      "byteStride": 8,
      "name": "floatBufferViews",
      "target": 34962
    },
    {
      "buffer": 0,
      "byteLength": 438048,
      "byteOffset": 379848,
      "byteStride": 12,
      "name": "floatBufferViews",
      "target": 34962
    },
    {
      "buffer": 0,
      "byteLength": 292032,
      "byteOffset": 817896,
      "byteStride": 16,
      "name": "floatBufferViews",
      "target": 34962
    }
  ],
  "buffers": [
    {
      "byteLength": 1109928,
      "uri": "scene.bin"
    }
  ],
  "materials": [
    {
      "doubleSided": true,
      "emissiveFactor": [
        0,
        0,
        0
      ],
      "name": "Material_26",
      "pbrMetallicRoughness": {
        "baseColorFactor": [
          1,
          1,
          1,
          1
        ],
        "metallicFactor": 0,
        "roughnessFactor": 0.59999999999999998
      }
    },
    {
      "doubleSided": true,
      "emissiveFactor": [
        0,
        0,
        0
      ],
      "name": "Material_27",
      "pbrMetallicRoughness": {
        "baseColorFactor": [
          1,
          1,
          1,
          1
        ],
        "metallicFactor": 0,
        "roughnessFactor": 0.59999999999999998
      }
    }
  ],
  "meshes": [
    {
      "name": "Dach_Material #26_0",
      "primitives": [
        {
          "attributes": {
            "NORMAL": 1,
            "POSITION": 0,
            "TANGENT": 2,
            "TEXCOORD_0": 3
          },
          "indices": 4,
          "material": 0,
          "mode": 4
        }
      ]
    },
    {
      "name": "Dach_Material #27_0",
      "primitives": [
        {
          "attributes": {
            "NORMAL": 6,
            "POSITION": 5,
            "TANGENT": 7,
            "TEXCOORD_0": 8
          },
          "indices": 9,
          "material": 1,
          "mode": 4
        }
      ]
    }
  ],
  "nodes": [
    {
      "children": [
        1
      ],
      "name": "RootNode (gltf orientation matrix)",
      "rotation": [
        -0.70710678118654746,
        -0,
        -0,
        0.70710678118654757
      ]
    },
    {
      "children": [
        2
      ],
      "name": "RootNode (model correction matrix)"
    },
    {
      "children": [
        3
      ],
      "matrix": [
        1,
        0,
        0,
        0,
        0,
        0,
        1,
        0,
        0,
        -1,
        0,
        0,
        0,
        0,
        0,
        1
      ],
      "name": "bc7e13f496534454b7bacc325c81025c.fbx"
    },
    {
      "children": [
        4
      ],
      "name": "RootNode"
    },
    {
      "children": [
        5,
        6
      ],
      "matrix": [
        1,
        0,
        0,
        0,
        0,
        0.999999999999999,
        4.3711388286737922e-08,
        0,
        0,
        -4.3711388286737922e-08,
        0.999999999999999,
        0,
        1.1387510982314032e-28,
        9857.375,
        -5.0052496869401608e-13,
        1
      ],
      "name": "Dach"
    },
    {
      "mesh": 0,
      "name": "Dach_Material #26_0"
    },
    {
      "mesh": 1,
      "name": "Dach_Material #27_0"
    }
  ],
  "scene": 0,
  "scenes": [
    {
      "name": "OSG_Scene",
      "nodes": [
        0
      ]
    }
  ]
}

